<svg width="45" height="53" viewBox="0 0 45 53" fill="none" xmlns="http://www.w3.org/2000/svg">
<path d="M35.6868 34.4151C35.6415 34.4106 29.0802 34.5906 28.1046 28.0527C29.1886 27.3494 30.1877 26.4364 31.0678 25.3286C32.7801 23.1734 33.8833 20.4698 34.2763 17.5454C34.4114 17.4318 34.5231 17.2905 34.5984 17.124C35.3094 15.549 35.67 13.8673 35.67 12.1253C35.67 5.43944 30.246 0 23.5786 0C21.8348 0 20.1431 0.373484 18.5453 1.11103C17.9358 1.1543 17.3385 1.25399 16.7657 1.40781C14.0274 2.1435 11.7991 4.03131 10.4911 6.72375C9.22125 9.33794 8.97098 12.4154 9.78657 15.3893C9.95891 16.0175 10.178 16.6349 10.4378 17.2247C10.5082 17.3842 10.6131 17.5203 10.739 17.6323C11.3756 22.1969 13.7113 25.9788 16.8962 28.0436C15.9176 34.5925 9.35863 34.4108 9.31343 34.4153C4.59512 34.5642 0.805176 38.1772 0.805176 42.6V51.8068C0.805176 52.4659 1.37974 53.0001 2.08857 53.0001H13.3584H31.6415H42.9116C43.6203 53.0001 44.1951 52.4659 44.1951 51.8068V42.6C44.195 38.177 40.4054 34.5639 35.6868 34.4151ZM17.4783 3.70079C17.9467 3.57491 18.4413 3.50028 18.9485 3.47906C19.1368 3.47119 19.3208 3.42492 19.4877 3.34335C20.787 2.70859 22.1635 2.38676 23.5787 2.38676C28.8305 2.38676 33.1032 6.75543 33.1032 12.1253C33.1032 12.2865 33.0984 12.4468 33.0908 12.6065C32.0721 11.6447 30.6568 11.0469 29.0939 11.0469H20.3467C19.8263 11.0469 19.3323 10.8949 18.918 10.6073C18.5644 10.3619 18.2909 10.032 18.1276 9.65335C17.8747 9.06766 17.251 8.70132 16.5721 8.74096C15.8908 8.78133 15.3175 9.22128 15.1454 9.83605C14.6385 11.6472 13.6277 13.3154 12.241 14.6683C10.9507 9.73068 13.2794 4.8288 17.4783 3.70079ZM16.3617 24.3407C14.6917 22.4436 13.598 19.8819 13.2513 17.0774C14.8708 15.7353 16.1511 14.0652 16.9846 12.2127C17.1111 12.3212 17.2439 12.4237 17.3826 12.5201C18.2438 13.1177 19.2687 13.4337 20.3468 13.4337H29.094C30.3316 13.4337 31.3984 14.124 31.8744 15.1118C31.8743 15.1203 31.873 15.1284 31.873 15.1369C31.873 21.8735 27.6692 27.3541 22.502 27.3541C20.2532 27.3542 18.0724 26.284 16.3617 24.3407ZM19.3107 29.2155C20.3281 29.5579 21.3983 29.741 22.502 29.741C23.5969 29.741 24.6667 29.5638 25.6908 29.2218C26.1607 31.4983 27.5219 33.4823 29.4233 34.8482L22.684 43.7721C22.6401 43.8304 22.579 43.8599 22.5024 43.8599C22.4259 43.8599 22.3648 43.8303 22.3209 43.7722L15.58 34.8463C17.4815 33.4788 18.8422 31.4933 19.3107 29.2155ZM41.6281 50.6132H31.6415H13.3584H3.37196V42.5998C3.37196 39.3989 6.17264 36.7947 9.61513 36.7947C9.66188 36.7947 11.7271 36.748 13.359 36.0585L20.22 45.1437C20.7415 45.8343 21.5947 46.2466 22.5022 46.2466C22.5022 46.2466 22.5022 46.2466 22.5024 46.2466C23.4098 46.2466 24.2631 45.8343 24.7846 45.1437L31.6444 36.06C33.5055 36.7948 35.3383 36.7948 35.385 36.7948C38.8275 36.7948 41.6281 39.399 41.6281 42.5999V50.6132Z" fill="#E13190"/>
</svg>
