<svg width="42" height="41" viewBox="0 0 42 41" fill="none" xmlns="http://www.w3.org/2000/svg">
<path d="M39.3248 7.13736H2.6752C1.20012 7.13736 0 8.3089 0 9.74887V31.2511C0 32.6911 1.20012 33.8626 2.6752 33.8626H39.3248C40.7999 33.8626 42 32.6911 42 31.2511V9.74887C42 8.3089 40.7999 7.13736 39.3248 7.13736ZM40.2166 31.251C40.2166 31.731 39.8165 32.1216 39.3248 32.1216H2.6752C2.18351 32.1216 1.78344 31.731 1.78344 31.251V9.74879C1.78344 9.2688 2.18351 8.87826 2.6752 8.87826H39.3248C39.8165 8.87826 40.2166 9.2688 40.2166 9.74879V31.251Z" fill="white"/>
<path d="M34.626 14.7749H25.0558C24.5633 14.7749 24.1641 15.1647 24.1641 15.6454C24.1641 16.1262 24.5633 16.516 25.0558 16.516H34.626C35.1185 16.516 35.5178 16.1262 35.5178 15.6454C35.5178 15.1647 35.1185 14.7749 34.626 14.7749Z" fill="white"/>
<path d="M34.626 19.6295H25.0558C24.5633 19.6295 24.1641 20.0192 24.1641 20.5C24.1641 20.9807 24.5633 21.3705 25.0558 21.3705H34.626C35.1185 21.3705 35.5178 20.9807 35.5178 20.5C35.5178 20.0192 35.1185 19.6295 34.626 19.6295Z" fill="white"/>
<path d="M34.626 24.4841H25.0558C24.5633 24.4841 24.1641 24.8739 24.1641 25.3546C24.1641 25.8353 24.5633 26.2251 25.0558 26.2251H34.626C35.1185 26.2251 35.5178 25.8353 35.5178 25.3546C35.5178 24.8739 35.1185 24.4841 34.626 24.4841Z" fill="white"/>
<path d="M16.4674 23.2421C16.4494 23.2409 14.8173 23.3073 14.3764 21.5837C14.9721 21.126 15.4719 20.4901 15.8291 19.7307C15.8555 19.7332 15.8819 19.7364 15.9081 19.7364C16.1513 19.7364 16.3867 19.6283 16.5414 19.4342C17.2903 18.4953 17.6797 17.2762 17.638 16.0014C17.5514 13.3585 15.6679 11.2751 13.3468 11.2506C13.2833 11.2481 13.2268 11.2497 13.1811 11.2513C13.18 11.2513 13.179 11.2514 13.1778 11.2514C12.6147 11.0131 12.0214 10.9015 11.41 10.9211C10.1031 10.9619 8.90397 11.5939 8.03379 12.7007C7.19994 13.7612 6.76673 15.1411 6.81406 16.5866C6.8221 16.8312 6.84195 17.0567 6.87378 17.2704C6.96016 17.8858 7.13407 18.4758 7.39066 19.0238C7.51396 19.2872 7.77613 19.4628 8.07242 19.4801C8.15306 19.4852 8.23222 19.4771 8.30835 19.4592C8.6715 20.3379 9.22021 21.0691 9.88384 21.5796C9.45178 23.3003 7.81009 23.2411 7.79212 23.2423C6.03756 23.2983 4.62769 24.7081 4.62769 26.4342V29.6064C4.62769 30.0391 4.98698 30.3899 5.43028 30.3899H18.8292C19.2725 30.3899 19.6318 30.0391 19.6318 29.6064V26.4342C19.6319 24.7079 18.2219 23.2982 16.4674 23.2421ZM8.47397 17.1229C8.47028 17.099 8.46675 17.0749 8.4633 17.0508C8.43935 16.8897 8.42467 16.7213 8.4186 16.5362C8.38299 15.4518 8.69857 14.4285 9.30724 13.6546C9.87916 12.9271 10.6444 12.5125 11.4615 12.487C11.4885 12.4861 12.1299 12.4365 12.6695 12.7478C12.7824 12.813 12.9208 12.8324 13.0513 12.8293C13.0678 12.8289 13.3083 12.817 13.3205 12.8171C14.7585 12.8263 15.9758 14.2772 16.0339 16.0513C16.0406 16.2546 16.0322 16.4554 16.0096 16.6518C15.4785 15.7618 14.6895 15.0727 13.7505 14.6873C13.5487 14.6046 13.321 14.6058 13.1202 14.6907C12.9193 14.7758 12.7628 14.9373 12.6868 15.1377C12.6249 15.3012 12.5496 15.4606 12.4632 15.6115C12.2525 15.9794 11.8213 16.1963 11.3381 16.1815C11.2419 16.1783 11.1448 16.1782 11.0493 16.1811C10.579 16.1959 10.1203 16.2834 9.68286 16.4425C9.24588 16.6036 8.83974 16.8323 8.47397 17.1229ZM9.59246 18.2601C9.79582 18.1134 10.0193 18.0049 10.2467 17.9098C10.6615 17.7362 11.2219 17.7456 11.2826 17.7477C12.3164 17.782 13.2602 17.3098 13.7853 16.5053C14.1948 16.8116 14.533 17.2241 14.769 17.713C14.5204 19.4713 13.3995 20.8089 12.1275 20.8089C10.9927 20.8089 9.97415 19.7611 9.59246 18.2601ZM11.3561 22.2876C11.6072 22.3454 11.8651 22.3758 12.1275 22.3758C12.3924 22.3758 12.6517 22.3451 12.9037 22.2878C13.1624 23.094 13.7057 23.7782 14.4175 24.2292C14.0751 25.149 13.1693 25.7939 12.1299 25.7939C11.0904 25.7939 10.1846 25.149 9.84208 24.2291C10.5541 23.7781 11.0974 23.0939 11.3561 22.2876ZM6.23296 28.8228V26.4341C6.23296 25.5365 6.981 24.8063 7.90049 24.8063C7.91886 24.8063 8.21163 24.7899 8.33706 24.7734C8.90849 26.2951 10.4089 27.3608 12.1298 27.3608C13.8506 27.3608 15.3511 26.2951 15.9225 24.7734C16.0481 24.7899 16.3406 24.8063 16.359 24.8063C17.2785 24.8063 18.0265 25.5366 18.0265 26.4341V28.8228H6.23296Z" fill="white"/>
</svg>
